# xmcd CD database file
#
# Track frame offsets:
#	150
#	25525
#	38565
#	50989
#	66366
#	78448
#	92608
#	105756
#	117187
#	139277
#	150718
#	165532
#	183921
#	197177
#
# Disc length: 3016 seconds
#
# Revision: 0
# Processed by: cddbd v1.5PL3 Copyright (c) Steve Scherf et al.
# Submitted via: CDex 1.50beta10
#
DISCID=b00bc60e
DTITLE=Charlie Parker - Masters of Jazz
DYEAR=1900
DGENRE=Jazz
TTITLE0=A night in Tunisia
TTITLE1=Blue bird
TTITLE2=Chasin' the bird
TTITLE3=Embraceable You
TTITLE4=Groovin' high
TTITLE5=Hot house
TTITLE6=Koko
TTITLE7=Max making wax
TTITLE8=52nd street theme
TTITLE9=Out of nowhere
TTITLE10=Salt peanuts
TTITLE11=Scrapple from the apple
TTITLE12=Yardbird suite
TTITLE13=Move
EXTD=
EXTT0=
EXTT1=
EXTT2=
EXTT3=
EXTT4=
EXTT5=
EXTT6=
EXTT7=
EXTT8=
EXTT9=
EXTT10=
EXTT11=
EXTT12=
EXTT13=
PLAYORDER=
